HIERARCHY
ROOT RootJoint
{
    OFFSET   0.000000   0.000000   0.000000
    CHANNELS 6 Xposition Yposition Zposition Xrotation Yrotation Zrotation
    JOINT pelvis_lowerback
    {
        OFFSET   0.000000   0.093605   0.000000
        CHANNELS 3 Xrotation Yrotation Zrotation
        JOINT lowerback_torso
        {
            OFFSET   0.000000   0.100000   0.000000
            CHANNELS 3 Xrotation Yrotation Zrotation
            JOINT torso_head
            {
                OFFSET   0.000000   0.282350   0.000000
                CHANNELS 3 Xrotation Yrotation Zrotation
                End Site
                {
                    OFFSET   0.000000   0.192650   0.000000
                }
            }
            JOINT rTorso_Clavicle
            {
                OFFSET  -0.001000   0.157500   0.000000
                CHANNELS 3 Xrotation Yrotation Zrotation
                JOINT rShoulder
                {
                    OFFSET  -0.117647   0.000000   0.000000
                    CHANNELS 3 Xrotation Yrotation Zrotation
                    JOINT rElbow
                    {
                        OFFSET  -0.245000   0.000000   0.000000
                        CHANNELS 3 Xrotation Yrotation Zrotation
                        JOINT rWrist
                        {
                            OFFSET  -0.240000   0.000000   0.000000
                            CHANNELS 3 Xrotation Yrotation Zrotation
                            End Site
                            {
                                OFFSET  -0.116353  -0.002500   0.000000
                            }
                        }
                    }
                }
            }
            JOINT lTorso_Clavicle
            {
                OFFSET   0.001000   0.157500   0.000000
                CHANNELS 3 Xrotation Yrotation Zrotation
                JOINT lShoulder
                {
                    OFFSET   0.117647   0.000000   0.000000
                    CHANNELS 3 Xrotation Yrotation Zrotation
                    JOINT lElbow
                    {
                        OFFSET   0.245000   0.000000   0.000000
                        CHANNELS 3 Xrotation Yrotation Zrotation
                        JOINT lWrist
                        {
                            OFFSET   0.240000   0.000000   0.000000
                            CHANNELS 3 Xrotation Yrotation Zrotation
                            End Site
                            {
                                OFFSET   0.116353  -0.002500   0.000000
                            }
                        }
                    }
                }
            }
        }
    }
    JOINT rHip
    {
        OFFSET  -0.100000  -0.051395   0.000000
        CHANNELS 3 Xrotation Yrotation Zrotation
        JOINT rKnee
        {
            OFFSET   0.000000  -0.410000   0.000000
            CHANNELS 3 Xrotation Yrotation Zrotation
            JOINT rAnkle
            {
                OFFSET   0.000000  -0.390000   0.000000
                CHANNELS 3 Xrotation Yrotation Zrotation
                JOINT rToeJoint
                {
                    OFFSET   0.000000  -0.050000   0.130000
                    CHANNELS 3 Xrotation Yrotation Zrotation
                    End Site
                    {
                        OFFSET  -0.010000   0.002000   0.060000
                    }
                }
            }
        }
    }
    JOINT lHip
    {
        OFFSET   0.100000  -0.051395   0.000000
        CHANNELS 3 Xrotation Yrotation Zrotation
        JOINT lKnee
        {
            OFFSET   0.000000  -0.410000   0.000000
            CHANNELS 3 Xrotation Yrotation Zrotation
            JOINT lAnkle
            {
                OFFSET   0.000000  -0.390000   0.000000
                CHANNELS 3 Xrotation Yrotation Zrotation
                JOINT lToeJoint
                {
                    OFFSET   0.000000  -0.050000   0.130000
                    CHANNELS 3 Xrotation Yrotation Zrotation
                    End Site
                    {
                        OFFSET   0.010000   0.002000   0.060000
                    }
                }
            }
        }
    }
}
MOTION
Frames: 7
Frame Time:   0.008333
 -2.367581   0.811591   4.006619  -0.151323   7.343100   0.503377  19.425750   0.678436  -1.064394  -0.797114  -0.942588   2.063155  -2.740928   1.353439   0.809223   1.327826   8.406808   7.355078   4.637959  14.762380  49.658843  -0.000220  17.224046  -0.000063   6.210156   2.787483 -11.889752   1.082385 -10.324163  -8.177462   5.252169 -17.459332 -48.929108  -0.000033 -16.096685   0.000045   4.424012  -4.342370  10.005390 -26.193480   2.290791  -3.232083  60.805898  -0.000423  -0.000599 -34.638514  -4.028089  -2.682719   0.030177  -0.000072   0.000195 -23.983052  -0.728311   1.310993  60.073165  -0.000225  -0.000347 -37.154829   2.243096   7.850087   1.489809   0.000000  -0.000009
 -2.367290   0.810915   4.007974  -0.065287   7.265927   0.504277  19.519612   0.689124  -1.031481  -0.884320  -0.927551   2.076755  -2.962808   1.398128   0.811864   1.308538   8.455977   7.453247   4.702432  14.644250  49.561292  -0.000251  17.145438  -0.000074   6.236151   2.794641 -11.768844   1.054893 -10.415364  -8.280185   5.221361 -17.369878 -48.774545  -0.000041 -16.114502   0.000046   4.408231  -4.321960   9.822889 -26.281261   2.231686  -3.268100  61.007541  -0.000496  -0.000685 -34.830159  -4.025874  -2.724656   0.087235  -0.000039   0.000085 -24.071081  -0.720470   1.287870  60.311803  -0.000259  -0.000427 -37.236012   2.318038   7.835861   1.251486  -0.000045   0.000048
 -2.367003   0.810139   4.009348   0.006664   7.196475   0.507480  19.618940   0.699830  -1.000012  -0.969564  -0.915912   2.092758  -3.179133   1.441535   0.813776   1.293014   8.504307   7.552705   4.765610  14.531107  49.468990  -0.000279  17.067228  -0.000079   6.256556   2.774215 -11.643706   1.018242 -10.509876  -8.376326   5.186175 -17.289438 -48.620097  -0.000049 -16.131472   0.000046   4.391271  -4.295814   9.658929 -26.362026   2.178599  -3.303483  61.233146  -0.000556  -0.000758 -35.037099  -4.025955  -2.760573   0.128179  -0.000019   0.000020 -24.162920  -0.708923   1.266092  60.588098  -0.000282  -0.000490 -37.317957   2.389302   7.822438   0.983076  -0.000081   0.000085
 -2.366710   0.809319   4.010745   0.070851   7.128009   0.511463  19.715148   0.709053  -0.968689  -1.049844  -0.907019   2.110565  -3.382053   1.482377   0.815385   1.278929   8.550516   7.651122   4.824497  14.425627  49.384997  -0.000300  16.993426  -0.000085   6.274673   2.746221 -11.518099   0.978263 -10.602415  -8.466864   5.149221 -17.217007 -48.472994  -0.000057 -16.148555   0.000047   4.375540  -4.274094   9.512719 -26.436198   2.131466  -3.337649  61.467493  -0.000600  -0.000815 -35.249803  -4.025701  -2.791922   0.155217  -0.000008  -0.000013 -24.249120  -0.696914   1.245268  60.874440  -0.000302  -0.000541 -37.407744   2.455727   7.807954   0.714259  -0.000112   0.000122
 -2.366408   0.808490   4.012163   0.131333   7.057472   0.515360  19.806252   0.716776  -0.937074  -1.125688  -0.900171   2.129864  -3.571884   1.520577   0.816974   1.265462   8.594726   7.747600   4.878660  14.327909  49.308954  -0.000313  16.924591  -0.000091   6.291931   2.718487 -11.393670   0.937510 -10.691586  -8.553024   5.111982 -17.151401 -48.335024  -0.000062 -16.165490   0.000048   4.361224  -4.257835   9.378370 -26.505438   2.088930  -3.370464  61.702551  -0.000631  -0.000857 -35.459695  -4.025467  -2.819597   0.166033  -0.000004  -0.000022 -24.328148  -0.684827   1.225309  61.159280  -0.000321  -0.000584 -37.501757   2.517801   7.792998   0.448747  -0.000136   0.000164
 -2.366096   0.807676   4.013598   0.190674   6.983551   0.518729  19.891525   0.723239  -0.905114  -1.197560  -0.894851   2.150342  -3.749440   1.556234   0.818677   1.252363   8.636980   7.841361   4.928280  14.237549  49.240119  -0.000321  16.860644  -0.000098   6.308793   2.693417 -11.271232   0.897256 -10.776821  -8.635222   5.075277 -17.091725 -48.206495  -0.000065 -16.182056   0.000050   4.348166  -4.246199   9.252133 -26.570381   2.050344  -3.401850  61.932743  -0.000650  -0.000886 -35.662820  -4.025144  -2.844508   0.161905  -0.000004  -0.000013 -24.400022  -0.672724   1.206132  61.436654  -0.000340  -0.000620 -37.596304   2.575913   7.778139   0.186120  -0.000155   0.000212
 -2.365773   0.806889   4.015049   0.250511   6.905766   0.521313  19.970768   0.728691  -0.872902  -1.265778  -0.890693   2.171698  -3.915499   1.589487   0.820536   1.239592   8.677243   7.931770   4.973722  14.153995  49.177684  -0.000323  16.801316  -0.000104   6.325377   2.671550 -11.151340   0.858181 -10.857847  -8.713491   5.039599 -17.037245 -48.087083  -0.000066 -16.198102   0.000052   4.336184  -4.238234   9.132074 -26.631436   2.015264  -3.431758  62.154644  -0.000659  -0.000902 -35.857175  -4.024682  -2.867237   0.144539  -0.000007   0.000008 -24.465115  -0.660626   1.187690  61.703266  -0.000358  -0.000650 -37.688875   2.630378   7.763741  -0.074354  -0.000169   0.000265
